<svg width="32" height="33" viewBox="0 0 32 33" fill="none" xmlns="http://www.w3.org/2000/svg">
<g clip-path="url(#clip0_58_702)">
<path d="M24.5 0.574326H7.5C3.35786 0.574326 0 3.93219 0 8.07433V25.0743C0 29.2165 3.35786 32.5743 7.5 32.5743H24.5C28.6421 32.5743 32 29.2165 32 25.0743V8.07433C32 3.93219 28.6421 0.574326 24.5 0.574326Z" fill="#F4F2ED"/>
<path d="M5.2045 25.9542H9.18175V16.2951L3.5 12.0338V24.2497C3.5 25.1928 4.26425 25.9542 5.2045 25.9542Z" fill="#4285F4"/>
<path d="M22.8181 25.9542H26.7955C27.7386 25.9542 28.5 25.19 28.5 24.2497V12.0337L22.8181 16.2951" fill="#34A853"/>
<path d="M22.8181 8.9087V16.2951L28.5 12.0338V9.76083C28.5 7.65295 26.0937 6.4512 24.4091 7.71545" fill="#FBBC04"/>
<path d="M9.18188 16.2951V8.90882L16 14.0222L22.8181 8.90857V16.2949L16 21.4087" fill="#EA4335"/>
<path d="M3.5 9.76095V12.0337L9.18175 16.2951V8.90883L7.59088 7.71558C5.90338 6.45133 3.5 7.65308 3.5 9.76095Z" fill="#C5221F"/>
</g>
<defs>
<clipPath id="clip0_58_702">
<rect width="32" height="32" fill="white" transform="translate(0 0.574326)"/>
</clipPath>
</defs>
</svg>
