<svg width="32" height="33" viewBox="0 0 32 33" fill="none" xmlns="http://www.w3.org/2000/svg">
<g clip-path="url(#clip0_58_693)">
<path d="M24.5 0.25H7.5C3.35786 0.25 0 3.60786 0 7.75V24.75C0 28.8921 3.35786 32.25 7.5 32.25H24.5C28.6421 32.25 32 28.8921 32 24.75V7.75C32 3.60786 28.6421 0.25 24.5 0.25Z" fill="url(#paint0_radial_58_693)"/>
<path d="M24.5 0.25H7.5C3.35786 0.25 0 3.60786 0 7.75V24.75C0 28.8921 3.35786 32.25 7.5 32.25H24.5C28.6421 32.25 32 28.8921 32 24.75V7.75C32 3.60786 28.6421 0.25 24.5 0.25Z" fill="url(#paint1_radial_58_693)"/>
<path d="M16.0011 3.75C12.6064 3.75 12.1803 3.76488 10.847 3.8255C9.51625 3.8865 8.60787 4.09712 7.81313 4.40625C6.99088 4.7255 6.2935 5.15262 5.59875 5.84762C4.90338 6.5425 4.47625 7.23987 4.156 8.06175C3.846 8.85675 3.63512 9.7655 3.57525 11.0956C3.51562 12.429 3.5 12.8553 3.5 16.2501C3.5 19.645 3.515 20.0697 3.5755 21.403C3.63675 22.7337 3.84738 23.6421 4.15625 24.4369C4.47575 25.2591 4.90288 25.9565 5.59788 26.6513C6.2925 27.3466 6.98988 27.7747 7.8115 28.094C8.60687 28.4031 9.51537 28.6137 10.8459 28.6747C12.1792 28.7354 12.605 28.7502 15.9996 28.7502C19.3948 28.7502 19.8195 28.7354 21.1528 28.6747C22.4835 28.6137 23.3929 28.4031 24.1882 28.094C25.0101 27.7747 25.7065 27.3466 26.401 26.6513C27.0964 25.9565 27.5234 25.2591 27.8438 24.4373C28.151 23.6421 28.362 22.7335 28.4245 21.4032C28.4844 20.07 28.5 19.645 28.5 16.2501C28.5 12.8553 28.4844 12.4292 28.4245 11.0959C28.362 9.76512 28.151 8.85688 27.8438 8.06213C27.5234 7.23988 27.0964 6.5425 26.401 5.84762C25.7057 5.15237 25.0104 4.72525 24.1875 4.40637C23.3906 4.09712 22.4817 3.88638 21.151 3.8255C19.8176 3.76488 19.3931 3.75 15.9972 3.75H16.0011ZM14.8798 6.00262C15.2126 6.00213 15.584 6.00262 16.0011 6.00262C19.3388 6.00262 19.7342 6.01463 21.0522 6.0745C22.271 6.13025 22.9325 6.33388 23.3731 6.505C23.9565 6.7315 24.3724 7.00238 24.8096 7.44C25.2471 7.8775 25.5179 8.29412 25.745 8.8775C25.9161 9.3175 26.12 9.979 26.1755 11.1978C26.2354 12.5155 26.2484 12.9112 26.2484 16.2472C26.2484 19.5833 26.2354 19.9791 26.1755 21.2967C26.1198 22.5155 25.9161 23.177 25.745 23.6171C25.5185 24.2005 25.2471 24.6159 24.8096 25.0531C24.3721 25.4906 23.9568 25.7614 23.3731 25.988C22.933 26.1599 22.271 26.363 21.0522 26.4188C19.7345 26.4786 19.3388 26.4916 16.0011 26.4916C12.6634 26.4916 12.2677 26.4786 10.9501 26.4188C9.73137 26.3625 9.06987 26.1589 8.62887 25.9877C8.04562 25.7611 7.62887 25.4904 7.19137 25.0529C6.75387 24.6154 6.48312 24.1998 6.256 23.6161C6.08488 23.176 5.881 22.5145 5.8255 21.2957C5.76562 19.978 5.75362 19.5823 5.75362 16.2441C5.75362 12.906 5.76562 12.5124 5.8255 11.1946C5.88125 9.97587 6.08488 9.31437 6.256 8.87375C6.48263 8.29037 6.75388 7.87375 7.1915 7.43625C7.62913 6.99875 8.04562 6.72787 8.629 6.50087C9.06962 6.329 9.73137 6.12587 10.9501 6.06987C12.1032 6.01775 12.5501 6.00212 14.8798 5.9995V6.00262ZM22.6736 8.07812C21.8455 8.07812 21.1736 8.74938 21.1736 9.57763C21.1736 10.4058 21.8455 11.0776 22.6736 11.0776C23.5018 11.0776 24.1736 10.4058 24.1736 9.57763C24.1736 8.7495 23.5018 8.07762 22.6736 8.07762V8.07812ZM16.0011 9.83075C12.4561 9.83075 9.58187 12.705 9.58187 16.2501C9.58187 19.7952 12.4561 22.6681 16.0011 22.6681C19.5462 22.6681 22.4195 19.7952 22.4195 16.2501C22.4195 12.7051 19.546 9.83075 16.0009 9.83075H16.0011ZM16.0011 12.0834C18.3022 12.0834 20.1679 13.9488 20.1679 16.2501C20.1679 18.5513 18.3022 20.4169 16.0011 20.4169C13.7 20.4169 11.8345 18.5513 11.8345 16.2501C11.8345 13.9488 13.6999 12.0834 16.0011 12.0834Z" fill="white"/>
</g>
<defs>
<radialGradient id="paint0_radial_58_693" cx="0" cy="0" r="1" gradientUnits="userSpaceOnUse" gradientTransform="translate(8.5 34.7146) rotate(-90) scale(31.7144 29.4969)">
<stop stop-color="#FFDD55"/>
<stop offset="0.1" stop-color="#FFDD55"/>
<stop offset="0.5" stop-color="#FF543E"/>
<stop offset="1" stop-color="#C837AB"/>
</radialGradient>
<radialGradient id="paint1_radial_58_693" cx="0" cy="0" r="1" gradientUnits="userSpaceOnUse" gradientTransform="translate(-5.36012 2.55512) rotate(78.681) scale(14.1765 58.436)">
<stop stop-color="#3771C8"/>
<stop offset="0.128" stop-color="#3771C8"/>
<stop offset="1" stop-color="#6600FF" stop-opacity="0"/>
</radialGradient>
<clipPath id="clip0_58_693">
<rect width="32" height="32" fill="white" transform="translate(0 0.25)"/>
</clipPath>
</defs>
</svg>
