<svg width="32" height="37" viewBox="0 0 32 37" fill="none" xmlns="http://www.w3.org/2000/svg">
<g clip-path="url(#clip0_58_698)">
<path d="M23.715 13.3294C26.0498 15.0009 28.91 15.9844 31.9992 15.9844V10.031C31.4145 10.0312 30.8314 9.97012 30.2594 9.84864V14.5349C27.1705 14.5349 24.3107 13.5515 21.9754 11.88V24.0294C21.9754 30.1072 17.0559 35.0338 10.9879 35.0338C8.72378 35.0338 6.61928 34.3483 4.87115 33.1725C6.86641 35.2158 9.64891 36.4833 12.7272 36.4833C18.7957 36.4833 23.7153 31.5567 23.7153 25.4786V13.3294H23.715ZM25.8613 7.3231C24.668 6.01755 23.8845 4.33035 23.715 2.46503V1.69934H22.0664C22.4814 4.07007 23.897 6.09546 25.8613 7.3231ZM8.70915 28.5087C8.04245 27.6334 7.68209 26.5623 7.68378 25.4612C7.68378 22.6815 9.93391 20.4277 12.71 20.4277C13.2273 20.4274 13.7415 20.5069 14.2347 20.6635V14.5769C13.6584 14.4979 13.0769 14.4642 12.4957 14.4766V19.2141C12.0023 19.0574 11.4878 18.9779 10.9703 18.9783C8.19428 18.9783 5.94428 21.2319 5.94428 24.012C5.94428 25.9778 7.0689 27.6796 8.70915 28.5087Z" fill="#FF004F"/>
<path d="M21.9754 11.8799C24.3107 13.5513 27.1704 14.5347 30.2594 14.5347V9.84852C28.5351 9.48064 27.0088 8.57829 25.8611 7.3231C23.8968 6.09534 22.4814 4.06994 22.0664 1.69934H17.736V25.4784C17.7261 28.2505 15.4799 30.4951 12.7097 30.4951C11.0775 30.4951 9.62725 29.7159 8.70887 28.5086C7.06887 27.6796 5.94412 25.9776 5.94412 24.0121C5.94412 21.2323 8.19412 18.9784 10.9701 18.9784C11.502 18.9784 12.0146 19.0614 12.4955 19.2142V14.4767C6.534 14.6001 1.73962 19.4786 1.73962 25.4785C1.73962 28.4736 2.9335 31.1888 4.87125 33.1727C6.61937 34.3483 8.72375 35.034 10.988 35.034C17.0561 35.034 21.9755 30.1071 21.9755 24.0294L21.9754 11.8799Z" fill="black"/>
<path d="M30.2594 9.84839V8.58155C28.7045 8.58381 27.1804 8.14771 25.8611 7.3231C27.0289 8.60348 28.5665 9.48644 30.2594 9.84864M22.0662 1.69922C22.0267 1.4727 21.9964 1.24467 21.9752 1.01569V0.25H15.996V24.0293C15.9865 26.8012 13.7402 29.0458 10.97 29.0458C10.1847 29.047 9.41005 28.863 8.70875 28.5088C9.62712 29.7159 11.0774 30.495 12.7096 30.495C15.4796 30.495 17.7261 28.2507 17.7359 25.4785V1.69934L22.0662 1.69922ZM12.4957 14.4766V13.1277C11.9961 13.0594 11.4924 13.0251 10.9881 13.0253C4.91937 13.0253 0 17.9521 0 24.0293C0 27.8395 1.93338 31.1973 4.87137 33.1725C2.93362 31.1887 1.73975 28.4734 1.73975 25.4784C1.73975 19.4786 6.534 14.6 12.4957 14.4766Z" fill="#00F2EA"/>
</g>
<defs>
<clipPath id="clip0_58_698">
<rect width="32" height="36.3243" fill="white" transform="translate(0 0.25)"/>
</clipPath>
</defs>
</svg>
