<svg width="32" height="33" viewBox="0 0 32 33" fill="none" xmlns="http://www.w3.org/2000/svg">
<g clip-path="url(#clip0_58_686)">
<path d="M0.682888 15.932C0.682138 18.6416 1.39014 21.2874 2.73639 23.6194L0.554138 31.5871L8.70814 29.4491C10.9634 30.6769 13.4903 31.3202 16.0581 31.3204H16.0649C24.5418 31.3204 31.4421 24.4225 31.4458 15.9441C31.4474 11.8357 29.8489 7.97249 26.9446 5.06599C24.0409 2.15974 20.179 0.558363 16.0643 0.556488C7.58639 0.556488 0.686513 7.45399 0.683013 15.932" fill="url(#paint0_linear_58_686)"/>
<path d="M0.13375 15.927C0.132875 18.7341 0.86625 21.4745 2.2605 23.89L0 32.1434L8.44637 29.9287C10.7736 31.1976 13.3939 31.8666 16.0601 31.8676H16.067C24.848 31.8676 31.9963 24.7216 32 15.9397C32.0015 11.6838 30.3455 7.68162 27.3375 4.671C24.3291 1.66075 20.3291 0.00175 16.067 0C7.2845 0 0.13725 7.145 0.13375 15.927ZM5.16388 23.474L4.8485 22.9734C3.52275 20.8654 2.823 18.4294 2.824 15.928C2.82675 8.62863 8.76725 2.69 16.072 2.69C19.6095 2.6915 22.934 4.0705 25.4345 6.5725C27.9349 9.07475 29.3108 12.401 29.3099 15.9388C29.3066 23.2381 23.366 29.1775 16.067 29.1775H16.0618C13.6851 29.1763 11.3542 28.538 9.3215 27.3319L8.83775 27.045L3.8255 28.3591L5.16388 23.474Z" fill="url(#paint1_linear_58_686)"/>
<path d="M12.0848 9.26849C11.7865 8.60561 11.4726 8.59224 11.189 8.58061C10.9568 8.57061 10.6913 8.57136 10.426 8.57136C10.1605 8.57136 9.72913 8.67124 9.36451 9.06936C8.99951 9.46786 7.97101 10.4309 7.97101 12.3895C7.97101 14.3481 9.39763 16.2411 9.59651 16.507C9.79563 16.7724 12.3506 20.9204 16.3971 22.5161C19.7601 23.8422 20.4445 23.5785 21.1744 23.512C21.9044 23.4457 23.5299 22.5492 23.8615 21.6196C24.1934 20.6901 24.1934 19.8934 24.0939 19.7269C23.9944 19.561 23.7289 19.4614 23.3308 19.2624C22.9326 19.0634 20.9753 18.1001 20.6104 17.9672C20.2454 17.8345 19.98 17.7682 19.7145 18.1669C19.449 18.5649 18.6866 19.4614 18.4543 19.7269C18.2221 19.993 17.9898 20.0261 17.5918 19.827C17.1934 19.6272 15.9113 19.2074 14.3901 17.8512C13.2066 16.796 12.4076 15.4929 12.1754 15.0942C11.9431 14.6962 12.1505 14.4805 12.3501 14.2821C12.529 14.1037 12.7484 13.8172 12.9476 13.5849C13.1461 13.3524 13.2124 13.1865 13.3451 12.921C13.478 12.6552 13.4115 12.4227 13.3121 12.2236C13.2124 12.0245 12.4388 10.0556 12.0848 9.26849Z" fill="white"/>
</g>
<defs>
<linearGradient id="paint0_linear_58_686" x1="1545.14" y1="3103.62" x2="1545.14" y2="0.556488" gradientUnits="userSpaceOnUse">
<stop stop-color="#1FAF38"/>
<stop offset="1" stop-color="#60D669"/>
</linearGradient>
<linearGradient id="paint1_linear_58_686" x1="1600" y1="3214.34" x2="1600" y2="0" gradientUnits="userSpaceOnUse">
<stop stop-color="#F9F9F9"/>
<stop offset="1" stop-color="white"/>
</linearGradient>
<clipPath id="clip0_58_686">
<rect width="32" height="32.25" fill="white"/>
</clipPath>
</defs>
</svg>
